<?xml version="1.0" standalone="no"?><!DOCTYPE svg PUBLIC "-//W3C//DTD SVG 1.1//EN" "http://www.w3.org/Graphics/SVG/1.1/DTD/svg11.dtd"><svg t="1664286293301" class="icon" viewBox="0 0 1024 1024" version="1.1" xmlns="http://www.w3.org/2000/svg" p-id="1925" xmlns:xlink="http://www.w3.org/1999/xlink" width="200" height="200"><path d="M512.768 736.64c-163.712 0-295.936-132.224-297.472-295.936h45.056c-1.536 139.648 109.696 252.416 249.344 253.824 139.648 1.536 252.416-109.696 253.824-249.344v-6.016h45.056c0.128 165.248-132.096 297.472-295.808 297.472z" fill="#6160F4" p-id="1926"></path><path d="M535.296 951.424H490.24V708.096h45.056v243.328z" fill="#6160F4" p-id="1927"></path><path d="M684.032 963.456H341.504v-45.056h342.528v45.056z" fill="#6160F4" p-id="1928"></path><path d="M662.912 445.184H361.088v-45.056H663.04v45.056z" fill="#FFC52D" p-id="1929"></path><path d="M512.768 60.544c97.664 0 177.28 79.616 177.28 177.28v228.352c0 97.664-79.616 177.28-177.28 177.28s-177.28-79.616-177.28-177.28V237.824c-1.536-97.664 78.08-177.28 177.28-177.28z m0 537.856c73.6 0 132.224-58.624 132.224-132.224V237.824c0-73.6-58.624-132.224-132.224-132.224s-132.224 58.624-132.224 132.224v228.352c-1.536 73.6 58.624 132.224 132.224 132.224z" fill="#6160F4" p-id="1930"></path></svg>