<?xml version="1.0" standalone="no"?><!DOCTYPE svg PUBLIC "-//W3C//DTD SVG 1.1//EN" "http://www.w3.org/Graphics/SVG/1.1/DTD/svg11.dtd"><svg t="1664286295950" class="icon" viewBox="0 0 1045 1024" version="1.1" xmlns="http://www.w3.org/2000/svg" p-id="2079" xmlns:xlink="http://www.w3.org/1999/xlink" width="204.1015625" height="200"><path d="M538.854592 118.016c217.856 0 395.136 175.744 395.136 393.6 0 105.216-42.112 205.824-115.712 279.424-154.752 153.216-404.096 153.216-557.312 0s-153.216-404.096 0-557.312c36.096-36.096 78.08-64.64 124.672-84.096 48-21.12 100.608-31.616 153.216-31.616z m0 743.68c192.256 0 349.952-156.288 349.952-349.952 0-192.256-156.288-349.952-349.952-349.952S190.310592 319.36 190.310592 513.152c0 192.256 156.16 348.544 348.544 348.544z" fill="#6160F4" p-id="2080"></path><path d="M688.998592 699.392c-55.552 0-115.712-1.536-177.28-6.016-120.192-7.552-238.848-25.6-354.56-54.016-37.504-8.96-75.136-22.528-109.696-39.04-12.032-6.016-24.064-14.976-33.024-24.064-17.92-16.512-19.456-45.056-2.944-63.104l7.552-7.552c10.496-8.96 22.528-14.976 36.096-19.584 36.096-12.032 73.6-19.584 111.104-24.064l6.016 45.056c-31.488 2.944-63.104 8.96-93.184 18.048-12.032 2.944-22.528 8.96-31.488 16.512 8.96 10.496 20.992 18.048 34.56 22.528 33.024 14.976 67.584 25.6 102.144 34.56 109.696 25.6 220.8 42.112 333.44 49.536 112.64 8.96 225.28 8.96 338.048-1.536 36.096-2.944 72.064-8.96 106.624-19.584 13.568-2.944 27.008-8.96 37.504-18.048-6.016-7.552-14.976-13.568-24.064-18.048-24.064-12.032-51.072-22.528-76.672-28.544l12.032-43.52c31.488 8.96 63.104 20.992 93.184 37.504 28.544 16.512 42.112 36.096 40.576 57.088-1.536 13.568-8.96 25.6-19.584 34.56-10.496 8.96-24.064 14.976-36.096 19.584-37.504 12.032-75.136 19.584-114.176 24.064-65.92 4.736-125.952 7.68-186.112 7.68z" fill="#6160F4" p-id="2081"></path><path d="M803.174592 513.152H758.118592c0-121.728-97.664-219.264-219.264-219.264v-45.056c145.664-0.128 264.32 117.12 264.32 264.32z" fill="#FFC52D" p-id="2082"></path></svg>