<?xml version="1.0" standalone="no"?><!DOCTYPE svg PUBLIC "-//W3C//DTD SVG 1.1//EN" "http://www.w3.org/Graphics/SVG/1.1/DTD/svg11.dtd"><svg t="1664286299177" class="icon" viewBox="0 0 1024 1024" version="1.1" xmlns="http://www.w3.org/2000/svg" p-id="2231" xmlns:xlink="http://www.w3.org/1999/xlink" width="200" height="200"><path d="M152.27136 687.06688h-45.056v-183.296c0-223.872 181.76-405.632 404.096-405.632s405.632 181.76 405.632 404.096v180.224h-45.184v-180.224c0-198.272-160.768-359.04-360.576-359.04-198.272 0-359.04 160.768-359.04 359.04v184.832z" fill="#6160F4" p-id="2232"></path><path d="M763.59936 448.21888h-45.056c0-102.144-82.56-186.24-186.24-186.24v-45.056c127.616-0.128 231.296 103.552 231.296 231.296z" fill="#FFC52D" p-id="2233"></path><path d="M107.21536 608.85888h139.648c48.128 0 87.168 39.04 88.576 88.576v141.184c0 48.128-39.04 87.168-88.576 87.168h-51.072c-48.128 0-87.168-39.04-88.576-88.576v-228.352z m139.648 271.872c24.064 0 42.112-19.584 43.52-43.52v-139.648c0-24.064-19.584-42.112-43.52-43.52h-94.592v183.296c0 24.064 19.584 42.112 43.52 43.52h51.072zM777.16736 608.85888h139.648v228.352c0 48.128-39.04 87.168-88.576 88.576h-51.072c-48.128 0-87.168-39.04-88.576-88.576v-139.648c1.408-49.664 40.448-88.704 88.576-88.704z m94.592 45.056h-94.592c-24.064 0-42.112 19.584-43.52 43.52v141.184c0 24.064 19.584 42.112 43.52 43.52h51.072c24.064 0 42.112-19.584 43.52-43.52v-184.704z" fill="#6160F4" p-id="2234"></path></svg>